<?xml version="1.0" standalone="no"?>
<svg xmlns="http://www.w3.org/2000/svg" version="1.1" xmlns:xlink="http://www.w3.org/1999/xlink" width="512" height="512" x="0" y="0" viewBox="0 0 512 512" style="enable-background:new 0 0 512 512" xml:space="preserve"><g><path d="M484.822 182.949h-2.58c-6.862-19.521-19.473-36.976-36.004-49.616-9.609-7.347-20.184-12.906-31.392-16.595 14.825-10.515 24.528-27.798 24.528-47.317 0-31.976-26.014-57.989-57.988-57.989-31.976 0-57.989 26.014-57.989 57.989 0 19.552 9.737 36.863 24.606 47.372a106.885 106.885 0 0 0-29.306 14.96c-9.029-6.561-18.856-11.599-29.236-15.014 14.826-10.515 24.529-27.799 24.529-47.317 0-31.976-26.014-57.989-57.989-57.989s-57.989 26.014-57.989 57.989c0 19.518 9.703 36.802 24.528 47.317-10.381 3.416-20.209 8.454-29.238 15.015a106.87 106.87 0 0 0-29.304-14.959c14.869-10.509 24.606-27.82 24.606-47.372 0-31.976-26.014-57.989-57.989-57.989S72.627 37.448 72.627 69.423c0 19.518 9.703 36.802 24.528 47.317-11.208 3.688-21.785 9.248-31.394 16.594-16.531 12.64-29.144 30.096-36.005 49.617h-2.578C16.604 182.949 8 191.552 8 202.126v241.507c0 10.575 8.604 19.179 19.179 19.179h290.378c14.028 22.639 39.089 37.756 67.624 37.756 28.534 0 53.595-15.117 67.623-37.756h32.019c10.574 0 19.178-8.604 19.178-19.179V202.126c-.001-10.574-8.605-19.177-19.179-19.177zM339.397 69.421c0-23.153 18.836-41.989 41.989-41.989 23.152 0 41.988 18.836 41.988 41.989 0 23.149-18.831 41.983-41.978 41.989H381.375c-23.147-.006-41.978-18.84-41.978-41.989zm41.99 57.989h.01c36.666.005 69.685 22.371 83.72 55.539h-108.26c-5.332-15.169-14.14-29.083-25.562-40.465 14.779-9.76 32.239-15.072 50.082-15.074h.01zM214.012 69.421c0-23.153 18.836-41.989 41.989-41.989s41.989 18.836 41.989 41.989c0 23.149-18.831 41.983-41.979 41.989H255.99c-23.148-.007-41.978-18.84-41.978-41.989zm41.989 57.989h.01c36.666.005 69.685 22.371 83.72 55.539H172.268c14.036-33.168 47.056-55.535 83.723-55.539h.01zM88.627 69.421c0-23.153 18.836-41.989 41.988-41.989 23.153 0 41.989 18.836 41.989 41.989 0 23.149-18.831 41.983-41.979 41.989H130.604c-23.147-.006-41.977-18.84-41.977-41.989zm41.977 57.988H130.625c17.842.002 35.302 5.314 50.08 15.074-11.423 11.383-20.231 25.297-25.563 40.466H46.882c14.035-33.168 47.055-55.535 83.722-55.54zm254.577 357.159c-35.018 0-63.506-28.488-63.506-63.505 0-35.018 28.488-63.506 63.506-63.506 35.017 0 63.505 28.488 63.505 63.506 0 35.017-28.489 63.505-63.505 63.505zM488 443.634c0 1.723-1.455 3.179-3.178 3.179h-24.44a79.132 79.132 0 0 0 4.304-25.749c0-43.84-35.666-79.506-79.505-79.506a78.989 78.989 0 0 0-39.286 10.428 7.947 7.947 0 0 0-4.177-1.186H235.374a8 8 0 0 0 0 16h91.775c-13.305 14.219-21.475 33.301-21.475 54.265a79.105 79.105 0 0 0 4.304 25.749h-282.8c-1.723 0-3.179-1.456-3.179-3.179V202.126c0-1.723 1.456-3.178 3.179-3.178h457.644c1.723 0 3.178 1.455 3.178 3.178zm-362.005-211.65c-50.12 0-90.896 40.775-90.896 90.896s40.775 90.896 90.896 90.896S216.892 373 216.892 322.88s-40.777-90.896-90.897-90.896zm-49.008 147.46c4.388-23.387 24.791-40.569 49.009-40.569 24.217 0 44.62 17.181 49.009 40.567-13.146 11.406-30.279 18.334-49.01 18.334-18.73 0-35.862-6.927-49.008-18.332zm27.741-77.838c0-11.728 9.541-21.269 21.269-21.269s21.269 9.541 21.269 21.269-9.541 21.269-21.269 21.269-21.269-9.541-21.269-21.269zm82.89 63.773c-6.342-16.814-19.278-30.178-35.563-37.164 6.911-6.769 11.209-16.194 11.209-26.609 0-20.55-16.719-37.269-37.269-37.269s-37.269 16.719-37.269 37.269c0 10.415 4.299 19.84 11.209 26.609-16.285 6.986-29.222 20.35-35.563 37.165-8.36-12.084-13.274-26.726-13.274-42.5 0-41.298 33.598-74.896 74.896-74.896s74.896 33.598 74.896 74.896c.002 15.774-4.912 30.415-13.272 42.499zm235.644-123.395H241.374c-7.72 0-14 6.28-14 14v20.092c0 7.72 6.28 14 14 14h181.888c7.719 0 13.999-6.28 13.999-14v-20.092c0-7.719-6.281-14-13.999-14zm-2.001 32.092H243.374v-16.092h177.887zm14.887 131.858c-1.303-4.01-4.865-6.734-9.078-6.94l-23.966-1.168-8.517-22.433c-1.495-3.938-5.188-6.482-9.407-6.482s-7.912 2.545-9.407 6.482l-8.517 22.433-23.968 1.168c-4.212.206-7.775 2.931-9.078 6.941s-.021 8.31 3.267 10.951l18.702 15.032-6.295 23.155c-1.105 4.068.384 8.299 3.795 10.777 3.411 2.48 7.896 2.588 11.426.279l20.075-13.143 20.077 13.144a10.05 10.05 0 0 0 5.513 1.658c2.07 0 4.136-.648 5.911-1.938 3.41-2.479 4.9-6.709 3.795-10.779l-6.296-23.153 18.705-15.034c3.286-2.643 4.567-6.941 3.263-10.95zm-35.022 15.949a10.065 10.065 0 0 0-3.404 10.481l3.212 11.812-10.242-6.705a10.057 10.057 0 0 0-11.021 0l-10.242 6.705 3.215-11.823a10.067 10.067 0 0 0-3.409-10.472l-9.542-7.669 12.22-.596a10.055 10.055 0 0 0 8.925-6.479l4.345-11.445 4.344 11.441a10.052 10.052 0 0 0 8.918 6.481l12.228.597zm8.413-103.085a8 8 0 0 1-8 8H235.374a8 8 0 0 1 0-16h166.165a8 8 0 0 1 8 8z" fill="#808080" opacity="1" data-original="#000000"/></g></svg>